<svg width="193" height="95" viewBox="0 0 193 95" fill="none" xmlns="http://www.w3.org/2000/svg">
<rect width="193" height="95" fill="#F5F5F5"/>
<path d="M128.886 38.5709C135.929 12.8993 153.208 -23.075 165.986 38.401" stroke="#FFD905" stroke-width="9"/>
<path d="M113.886 38.5709C113.886 38.5709 113.886 38.5709 113.886 38.5709C115.969 38.2709 118.052 37.9859 120.135 37.7159C138.695 35.3099 157.255 34.095 175.815 34.0713C176.084 34.071 176.349 34.0782 176.618 34.093C182.098 34.2978 187.597 38.2488 189.044 43.8717C192.763 58.7048 194.082 75.5584 186.522 89.4605C185.44 91.325 184.16 93.0587 182.695 94.5709C183.673 92.7065 184.406 90.7633 184.948 88.7931C188.437 74.505 184.81 59.9288 180.694 46.3106C180.086 44.4977 178.249 43.188 176.123 43.0794C176.02 43.0737 175.919 43.0708 175.815 43.0706C157.255 43.0468 138.695 41.8319 120.135 39.4259C118.052 39.1559 115.969 38.8709 113.886 38.5709Z" fill="#2274A5"/>
<path d="M17.0625 61.3891L16.1591 66.8436H-3.33786e-06L0.903406 61.3891H17.0625ZM0.221588 87.5709L4.90909 59.497C5.21591 57.5993 5.84091 56.0255 6.78409 54.7755C7.73863 53.5255 8.91477 52.588 10.3125 51.963C11.7216 51.338 13.2443 51.0255 14.8807 51.0255C15.9943 51.0255 17 51.1107 17.8977 51.2811C18.8068 51.4516 19.4659 51.605 19.875 51.7414L17.7102 57.1959C17.4375 57.105 17.1023 57.0198 16.7045 56.9402C16.3068 56.8607 15.8864 56.8209 15.4432 56.8209C14.3864 56.8209 13.608 57.0709 13.108 57.5709C12.6193 58.0595 12.2898 58.747 12.1193 59.6334L7.46591 87.5709H0.221588ZM17.1179 87.5709L21.4815 61.3891H28.7429L24.3793 87.5709H17.1179ZM25.8622 57.98C24.7827 57.98 23.8906 57.622 23.1861 56.9061C22.4929 56.1789 22.2088 55.3152 22.3338 54.3152C22.4588 53.2925 22.9474 52.4289 23.7997 51.7243C24.652 51.0084 25.6179 50.6505 26.6974 50.6505C27.777 50.6505 28.6577 51.0084 29.3395 51.7243C30.0213 52.4289 30.3054 53.2925 30.1918 54.3152C30.0781 55.3152 29.5952 56.1789 28.7429 56.9061C27.902 57.622 26.9418 57.98 25.8622 57.98ZM39.8097 87.997C37.8097 87.997 36.0881 87.4857 34.6449 86.463C33.2131 85.4289 32.1903 83.9118 31.5767 81.9118C30.9744 79.9005 30.9176 77.4345 31.4062 74.5141C31.9062 71.5141 32.804 69.0198 34.0994 67.0311C35.3949 65.0311 36.929 63.5368 38.7017 62.5482C40.4744 61.5482 42.321 61.0482 44.2415 61.0482C45.696 61.0482 46.8722 61.2982 47.7699 61.7982C48.679 62.2868 49.3778 62.9005 49.8665 63.6391C50.3551 64.3664 50.696 65.0823 50.8892 65.7868H51.1108L53.3097 52.6618H60.554L54.7585 87.5709H47.5994L48.2983 83.3777H47.9915C47.5369 84.105 46.9347 84.8266 46.1847 85.5425C45.446 86.247 44.5483 86.8323 43.4915 87.2982C42.446 87.7641 41.2187 87.997 39.8097 87.997ZM43.0142 82.2186C44.1733 82.2186 45.2187 81.9005 46.1506 81.2641C47.0824 80.6164 47.8665 79.713 48.5028 78.5539C49.1392 77.3948 49.5824 76.0368 49.8324 74.48C50.0937 72.9232 50.0994 71.5709 49.8494 70.4232C49.5994 69.2755 49.1108 68.3891 48.3835 67.7641C47.6676 67.1391 46.7187 66.8266 45.5369 66.8266C44.3437 66.8266 43.2869 67.1505 42.3665 67.7982C41.4574 68.4459 40.7017 69.3436 40.0994 70.4914C39.5085 71.6391 39.0881 72.9686 38.8381 74.48C38.5881 76.0027 38.571 77.3493 38.7869 78.5198C39.0028 79.6789 39.4631 80.588 40.1676 81.247C40.8722 81.8948 41.821 82.2186 43.0142 82.2186ZM72.5753 88.0823C69.8935 88.0823 67.6719 87.5368 65.9105 86.4459C64.1491 85.3436 62.9105 83.7868 62.1946 81.7755C61.4901 79.7527 61.3707 77.3607 61.8366 74.5993C62.2912 71.9061 63.206 69.5425 64.581 67.5084C65.9673 65.4743 67.706 63.8891 69.7969 62.7527C71.8878 61.6164 74.2173 61.0482 76.7855 61.0482C78.5128 61.0482 80.0753 61.3266 81.473 61.8834C82.8821 62.4289 84.0526 63.2584 84.9844 64.372C85.9162 65.4743 86.5526 66.855 86.8935 68.5141C87.2457 70.1732 87.2401 72.1164 86.8764 74.3436L86.5526 76.338H64.4616L65.1605 71.838H80.4332C80.6037 70.7925 80.5355 69.8664 80.2287 69.0595C79.9219 68.2527 79.4105 67.622 78.6946 67.1675C77.9787 66.7016 77.098 66.4686 76.0526 66.4686C74.9844 66.4686 73.9844 66.73 73.0526 67.2527C72.1207 67.7755 71.3366 68.463 70.7003 69.3152C70.0753 70.1561 69.6719 71.0709 69.4901 72.0595L68.6889 76.5255C68.4616 77.9005 68.5071 79.0425 68.8253 79.9516C69.1548 80.8607 69.723 81.5425 70.5298 81.997C71.3366 82.4402 72.3594 82.6618 73.598 82.6618C74.4048 82.6618 75.1605 82.5482 75.8651 82.3209C76.581 82.0936 77.2173 81.7584 77.7741 81.3152C78.331 80.8607 78.7855 80.2982 79.1378 79.6277L85.7685 80.0709C85.1548 81.6845 84.223 83.0936 82.973 84.2982C81.723 85.4914 80.2173 86.4232 78.456 87.0936C76.706 87.7527 74.7457 88.0823 72.5753 88.0823ZM74.4332 58.0141L79.3594 50.2584H86.0753L79.581 58.0141H74.4332ZM102.503 52.6618L96.7074 87.5709H89.446L95.2415 52.6618H102.503ZM102.524 87.5709L106.888 61.3891H114.149L109.786 87.5709H102.524ZM111.268 57.98C110.189 57.98 109.297 57.622 108.592 56.9061C107.899 56.1789 107.615 55.3152 107.74 54.3152C107.865 53.2925 108.354 52.4289 109.206 51.7243C110.058 51.0084 111.024 50.6505 112.104 50.6505C113.183 50.6505 114.064 51.0084 114.746 51.7243C115.428 52.4289 115.712 53.2925 115.598 54.3152C115.484 55.3152 115.001 56.1789 114.149 56.9061C113.308 57.622 112.348 57.98 111.268 57.98ZM125.42 72.4345L122.898 87.5709H115.653L120.017 61.3891H126.92L126.17 66.0084H126.46C127.29 64.4743 128.46 63.2641 129.972 62.3777C131.494 61.4914 133.227 61.0482 135.17 61.0482C136.989 61.0482 138.506 61.4459 139.722 62.2414C140.949 63.0368 141.812 64.1675 142.312 65.6334C142.824 67.0993 142.909 68.855 142.568 70.9005L139.773 87.5709H132.511L135.085 72.1959C135.347 70.5936 135.142 69.3436 134.472 68.4459C133.812 67.5368 132.75 67.0823 131.284 67.0823C130.307 67.0823 129.409 67.2925 128.591 67.713C127.773 68.1334 127.085 68.747 126.528 69.5539C125.983 70.3493 125.614 71.3095 125.42 72.4345ZM153.286 80.0368L154.734 71.3266H155.791L165.865 61.3891H174.2L160.768 74.5482H159.03L153.286 80.0368ZM145.462 87.5709L151.257 52.6618H158.518L152.723 87.5709H145.462ZM161.825 87.5709L156.03 76.1675L161.706 71.0368L170.331 87.5709H161.825Z" fill="white"/>
</svg>
