<svg width="126" height="84" viewBox="0 0 126 84" fill="none" xmlns="http://www.w3.org/2000/svg">
<path d="M53.0114 11.3182L51.8523 18.1364H34.3295L35.4886 11.3182H53.0114ZM34.4318 37.5L38.9318 10.5682C39.2841 8.40909 39.9602 6.61932 40.9602 5.19886C41.9716 3.77841 43.2386 2.71591 44.7614 2.01136C46.2955 1.30682 48.0114 0.954543 49.9091 0.954543C51.1136 0.954543 52.267 1.04545 53.3693 1.22727C54.4716 1.40909 55.2727 1.56818 55.7727 1.70454L53.3182 8.45455C52.9886 8.35227 52.608 8.27273 52.1761 8.21591C51.7443 8.14773 51.3523 8.11364 51 8.11364C50.125 8.11364 49.5 8.30114 49.125 8.67614C48.7614 9.05114 48.5227 9.54545 48.4091 10.1591L43.8409 37.5H34.4318ZM52.2443 37.5L56.608 11.3182H66.017L61.6534 37.5H52.2443ZM61.7216 8.59091C60.4489 8.59091 59.4205 8.17045 58.6364 7.32955C57.8523 6.47727 57.5625 5.46591 57.767 4.29545C57.9716 3.10227 58.5966 2.09091 59.642 1.26136C60.6875 0.420454 61.8466 0 63.1193 0C64.4034 0 65.4261 0.420454 66.1875 1.26136C66.9489 2.09091 67.233 3.10227 67.0398 4.29545C66.858 5.46591 66.2443 6.47727 65.1989 7.32955C64.1648 8.17045 63.0057 8.59091 61.7216 8.59091ZM75.8906 37.8409C74.027 37.8409 72.3906 37.3523 70.9815 36.375C69.5838 35.3977 68.5781 33.9148 67.9645 31.9261C67.3622 29.9375 67.3111 27.4318 67.8111 24.4091C68.3338 21.25 69.2486 18.6818 70.5554 16.7045C71.8736 14.7273 73.3849 13.2784 75.0895 12.358C76.8054 11.4375 78.527 10.9773 80.2543 10.9773C81.5497 10.9773 82.6463 11.2045 83.544 11.6591C84.4531 12.1023 85.1747 12.6989 85.7088 13.4489C86.2429 14.1875 86.6065 15 86.7997 15.8864H86.9361L89.152 2.59091H98.5611L92.7656 37.5H83.4247L84.1406 33.2045H83.9361C83.4247 34.0909 82.7713 34.8864 81.9759 35.5909C81.1918 36.2841 80.2884 36.8352 79.2656 37.2443C78.2429 37.642 77.1179 37.8409 75.8906 37.8409ZM80.5611 30.6136C81.4247 30.6136 82.2088 30.3636 82.9134 29.8636C83.6179 29.3523 84.2145 28.6364 84.7031 27.7159C85.1918 26.7841 85.5384 25.6818 85.7429 24.4091C85.9588 23.1136 85.9759 22.0057 85.794 21.0852C85.6122 20.1534 85.2486 19.4432 84.7031 18.9545C84.169 18.4545 83.4702 18.2045 82.6065 18.2045C81.7429 18.2045 80.9645 18.4545 80.2713 18.9545C79.5781 19.4432 78.9929 20.1534 78.5156 21.0852C78.0497 22.0057 77.7088 23.1136 77.4929 24.4091C77.277 25.7045 77.2486 26.8182 77.4077 27.75C77.5781 28.6705 77.9304 29.3807 78.4645 29.8807C78.9986 30.3693 79.6974 30.6136 80.5611 30.6136ZM109.862 37.9773C107.067 37.9773 104.749 37.4432 102.908 36.375C101.067 35.2955 99.7713 33.75 99.0213 31.7386C98.2713 29.7159 98.1349 27.2955 98.6122 24.4773C99.0668 21.7727 100.004 19.4091 101.425 17.3864C102.857 15.3636 104.658 13.7898 106.828 12.6648C109.01 11.5398 111.453 10.9773 114.158 10.9773C116.135 10.9773 117.868 11.2841 119.357 11.8977C120.857 12.5114 122.078 13.4034 123.021 14.5739C123.964 15.7443 124.601 17.1591 124.93 18.8182C125.271 20.4659 125.271 22.3295 124.93 24.4091L124.589 26.5909H101.203L102.021 21.4091H116.749C116.862 20.6591 116.788 20 116.527 19.4318C116.277 18.8523 115.874 18.4034 115.317 18.0852C114.771 17.7557 114.112 17.5909 113.339 17.5909C112.567 17.5909 111.839 17.7557 111.158 18.0852C110.487 18.4148 109.913 18.875 109.436 19.4659C108.97 20.0568 108.658 20.75 108.499 21.5455L107.476 27C107.339 27.8409 107.391 28.5909 107.629 29.25C107.868 29.9091 108.283 30.4261 108.874 30.8011C109.464 31.1761 110.226 31.3636 111.158 31.3636C111.794 31.3636 112.396 31.2784 112.964 31.108C113.544 30.9261 114.055 30.6648 114.499 30.3239C114.953 29.9716 115.317 29.5455 115.589 29.0455H124.18C123.567 30.8636 122.595 32.4432 121.266 33.7841C119.947 35.1136 118.322 36.1477 116.391 36.8864C114.47 37.6136 112.294 37.9773 109.862 37.9773ZM111.294 8.04545L115.862 0.409089H123.908L117.499 8.04545H111.294Z" fill="black"/>
<path d="M26.7273 55.8409H18.2727C18.3182 55.2955 18.2216 54.8295 17.983 54.4432C17.7443 54.0568 17.4091 53.7614 16.9773 53.5568C16.5568 53.3523 16.0795 53.25 15.5455 53.25C14.6136 53.25 13.767 53.4602 13.0057 53.8807C12.2443 54.2898 11.8182 54.8295 11.7273 55.5C11.6705 55.7614 11.7557 56.0057 11.983 56.233C12.2102 56.4602 12.8068 56.6705 13.7727 56.8636L18.9545 57.8182C21.5455 58.2955 23.4318 59.1648 24.6136 60.4261C25.8068 61.6761 26.2386 63.3295 25.9091 65.3864C25.6023 67.1705 24.8182 68.7045 23.5568 69.9886C22.2955 71.2727 20.6932 72.2614 18.75 72.9545C16.8182 73.6364 14.6818 73.9773 12.3409 73.9773C8.21591 73.9773 5.125 73.1534 3.06818 71.5057C1.02273 69.858 0.0909084 67.7045 0.272727 65.0455H9.40909C9.43182 65.8977 9.71591 66.5398 10.2614 66.9716C10.8182 67.392 11.5568 67.6136 12.4773 67.6364C13.4773 67.6705 14.3523 67.4716 15.1023 67.0398C15.8523 66.5966 16.2727 66.0455 16.3636 65.3864C16.3977 65.0114 16.233 64.7273 15.8693 64.5341C15.517 64.3409 14.8409 64.1477 13.8409 63.9545L9.34091 63.1364C6.75 62.6705 4.86364 61.7386 3.68182 60.3409C2.5 58.9318 2.09091 57.1364 2.45454 54.9545C2.75 53.2159 3.45454 51.7557 4.56818 50.5739C5.69318 49.392 7.17045 48.5 9 47.8977C10.8295 47.2841 12.9432 46.9773 15.3409 46.9773C19.2614 46.9773 22.2273 47.767 24.2386 49.3466C26.2614 50.9148 27.0909 53.0795 26.7273 55.8409ZM40.0824 58.7727L37.6278 73.5H28.2187L34.0142 38.5909H43.0824L40.8324 52.2955H41.1051C41.9574 50.625 43.1506 49.3239 44.6847 48.392C46.2187 47.4489 47.9574 46.9773 49.9006 46.9773C51.7415 46.9773 53.2756 47.3977 54.5028 48.2386C55.7301 49.0795 56.5994 50.2386 57.1108 51.7159C57.6222 53.1932 57.7188 54.8864 57.4006 56.7955L54.6051 73.5H45.196L47.6506 58.7727C47.8551 57.4773 47.6903 56.4602 47.1563 55.7216C46.6335 54.983 45.7756 54.6136 44.5824 54.6136C43.8097 54.6136 43.1051 54.7841 42.4687 55.125C41.8437 55.4545 41.321 55.9318 40.9006 56.5568C40.4915 57.1705 40.2187 57.9091 40.0824 58.7727ZM71.7273 73.9773C68.8864 73.9773 66.5455 73.4148 64.7045 72.2898C62.875 71.1534 61.5909 69.5739 60.8523 67.5511C60.1136 65.517 59.9659 63.1591 60.4091 60.4773C60.8523 57.7955 61.7784 55.4432 63.1875 53.4205C64.5966 51.3864 66.4091 49.8068 68.625 48.6818C70.8409 47.5455 73.375 46.9773 76.2273 46.9773C79.0568 46.9773 81.3864 47.5455 83.2159 48.6818C85.0568 49.8068 86.3466 51.3864 87.0852 53.4205C87.8352 55.4432 87.9886 57.7955 87.5455 60.4773C87.1023 63.1591 86.1705 65.517 84.75 67.5511C83.3295 69.5739 81.5114 71.1534 79.2955 72.2898C77.0909 73.4148 74.5682 73.9773 71.7273 73.9773ZM72.8864 67.0227C73.7045 67.0227 74.4489 66.7557 75.1193 66.2216C75.8011 65.6875 76.3807 64.9261 76.858 63.9375C77.3466 62.9489 77.7045 61.7727 77.9318 60.4091C78.1591 59.0341 78.1932 57.858 78.0341 56.8807C77.875 55.892 77.5455 55.1307 77.0455 54.5966C76.5455 54.0625 75.8864 53.7955 75.0682 53.7955C74.25 53.7955 73.5 54.0625 72.8182 54.5966C72.1364 55.1307 71.5568 55.892 71.0795 56.8807C70.6023 57.858 70.25 59.0341 70.0227 60.4091C69.7955 61.7727 69.7557 62.9489 69.9034 63.9375C70.0625 64.9261 70.392 65.6875 70.892 66.2216C71.4034 66.7557 72.0682 67.0227 72.8864 67.0227ZM87.6136 83.3182L93.6477 47.3182H102.989L102.239 51.8864H102.443C102.92 51 103.545 50.1875 104.318 49.4489C105.102 48.6989 106.023 48.1023 107.08 47.6591C108.148 47.2045 109.33 46.9773 110.625 46.9773C112.352 46.9773 113.915 47.4375 115.312 48.358C116.71 49.2784 117.739 50.7273 118.398 52.7045C119.057 54.6818 119.125 57.25 118.602 60.4091C118.102 63.4318 117.21 65.9375 115.926 67.9261C114.653 69.9148 113.153 71.3977 111.426 72.375C109.71 73.3523 107.92 73.8409 106.057 73.8409C104.83 73.8409 103.767 73.642 102.869 73.2443C101.972 72.8352 101.25 72.2841 100.705 71.5909C100.159 70.8864 99.7841 70.0909 99.5795 69.2045H99.375L97.0568 83.3182H87.6136ZM100.67 60.4091C100.466 61.6818 100.449 62.7841 100.619 63.7159C100.801 64.6364 101.159 65.3523 101.693 65.8636C102.239 66.3636 102.943 66.6136 103.807 66.6136C104.67 66.6136 105.443 66.3693 106.125 65.8807C106.807 65.3807 107.386 64.6705 107.864 63.75C108.341 62.8182 108.693 61.7045 108.92 60.4091C109.125 59.1136 109.142 58.0057 108.972 57.0852C108.801 56.1534 108.455 55.4432 107.932 54.9545C107.409 54.4545 106.716 54.2045 105.852 54.2045C104.989 54.2045 104.199 54.4545 103.483 54.9545C102.778 55.4432 102.182 56.1534 101.693 57.0852C101.216 58.0057 100.875 59.1136 100.67 60.4091Z" fill="#FFD905"/>
<path d="M123.727 42.6434L36.7273 42.5L36.7339 38.5L123.734 38.6434L123.727 42.6434Z" fill="#FFD905"/>
</svg>
